Coordinates
version=1
nRows=5
nColumns=40
inDegrees=yes

Units are S.I. units (second, meters, Newtons, ...)
Angles are in degrees.

endheader
time	pelvis_tilt	pelvis_list	pelvis_rotation	pelvis_tx	pelvis_ty	pelvis_tz	hip_flexion_r	hip_adduction_r	hip_rotation_r	knee_angle_r	knee_angle_r_beta	ankle_angle_r	subtalar_angle_r	mtp_angle_r	hip_flexion_l	hip_adduction_l	hip_rotation_l	knee_angle_l	knee_angle_l_beta	ankle_angle_l	subtalar_angle_l	mtp_angle_l	lumbar_extension	lumbar_bending	lumbar_rotation	arm_flex_r	arm_add_r	arm_rot_r	elbow_flex_r	pro_sup_r	wrist_flex_r	wrist_dev_r	arm_flex_l	arm_add_l	arm_rot_l	elbow_flex_l	pro_sup_l	wrist_flex_l	wrist_dev_l
     26.67250000	     -8.81088844	     -4.98415601	    -11.05076851	      1.03596862	      0.92271760	      0.53261314	     21.31431456	      6.38604530	     -3.42473058	     18.32968424	     18.32968424	      8.20277307	      6.88367546	     -3.75203118	      1.10467360	    -10.64540097	    -13.68735155	     16.15622448	     16.15622448	     19.12249759	    -10.26067782	      5.82295767	     -8.79598901	      7.56685930	      0.37985550	      1.63502164	    -13.16735735	    -13.92868510	     34.03775072	     45.96637281	      0.00000000	      0.00000000	     31.01619222	    -15.46785842	     -1.78107531	     81.76291179	     47.61585542	      0.00000000	      0.00000000
     26.69714286	     -8.75960236	     -5.08314571	    -10.59619197	      1.03690807	      0.92299820	      0.53729673	     20.77994785	      6.67962744	     -3.51418346	     18.26878016	     18.26878016	      8.78057377	      6.52681806	     -3.27992589	      1.40372374	    -11.24485224	    -13.58325721	     17.49534403	     17.49534403	     19.22037460	    -10.15789142	      6.16101705	     -8.70549485	      7.45147628	      0.40346029	      2.39068179	    -13.63449958	    -13.90317691	     35.44049367	     45.91990408	      0.00000000	      0.00000000	     29.61428499	    -14.74468638	     -1.06312387	     79.55233612	     47.53718973	      0.00000000	      0.00000000
     26.72178571	     -8.61129481	     -5.19987044	    -10.10973803	      1.03788109	      0.92336218	      0.54154352	     20.11622490	      6.94038843	     -3.69714046	     18.14386297	     18.14386297	      9.19014619	      6.27971452	     -3.26369754	      1.94136979	    -11.85626962	    -13.08964941	     19.38943965	     19.38943965	     18.94351880	    -10.79704300	      5.85071962	     -8.68063251	      7.36261352	      0.12051683	      3.58524031	    -14.01977211	    -13.99255921	     36.31047134	     45.90050425	      0.00000000	      0.00000000	     27.53388456	    -14.30451501	     -0.55664930	     77.94088760	     47.46558246	      0.00000000	      0.00000000
     26.74642857	     -8.41823178	     -5.26946615	     -9.62690358	      1.03886196	      0.92373738	      0.54549686	     19.47373002	      7.18736302	     -3.60887188	     18.13639657	     18.13639657	      9.68479753	      5.59448455	     -2.87399904	      2.81587068	    -12.48788757	    -12.45614078	     21.91940338	     21.91940338	     18.20810130	    -11.70792547	      4.59251607	     -8.57103308	      7.23418122	      0.23983095	      4.09234133	    -14.51211374	    -13.92237468	     38.33911383	     45.82469023	      0.00000000	      0.00000000	     25.91159486	    -13.31634441	     -0.01516882	     74.36113914	     47.37565853	      0.00000000	      0.00000000
     26.77107143	     -8.08483422	     -5.38905876	     -9.12555908	      1.03988115	      0.92418968	      0.54919346	     18.68814968	      7.42418938	     -3.69568578	     18.15690536	     18.15690536	     10.10507505	      5.17106942	     -2.87019524	      4.05720815	    -13.23044247	    -11.52904045	     25.36838160	     25.36838160	     17.45808362	    -12.89279490	      3.73798838	     -8.62468777	      7.12198883	     -0.12799517	      5.41400755	    -14.69737979	    -14.00983488	     39.45914948	     45.79553084	      0.00000000	      0.00000000	     23.40220035	    -12.98017964	      0.45965884	     72.10652636	     47.29306904	      0.00000000	      0.00000000
